<svg width="342" height="30" viewBox="0 0 342 30" fill="none" xmlns="http://www.w3.org/2000/svg">
<path d="M16.84 29H0.88V0.439998H16.84V3.6H4.48V12.52H16.12V15.64H4.48V25.84H16.84V29ZM45.9866 14.44C45.9866 17.64 45.3866 20.32 44.1866 22.48C43.0132 24.64 41.3199 26.2667 39.1066 27.36C36.8932 28.4533 34.2132 29 31.0666 29H23.1066V0.439998H31.9066C34.7866 0.439998 37.2799 0.973332 39.3866 2.04C41.4932 3.10667 43.1199 4.68 44.2666 6.76C45.4132 8.81333 45.9866 11.3733 45.9866 14.44ZM42.1866 14.56C42.1866 12.0267 41.7599 9.94667 40.9066 8.32C40.0799 6.69333 38.8532 5.49333 37.2266 4.72C35.6266 3.92 33.6799 3.52 31.3866 3.52H26.7066V25.92H30.5866C34.4532 25.92 37.3466 24.9733 39.2666 23.08C41.2132 21.16 42.1866 18.32 42.1866 14.56ZM60.3653 29H50.0453V26.92L53.4053 26.16V3.32L50.0453 2.52V0.439998H60.3653V2.52L57.0053 3.32V26.16L60.3653 26.92V29ZM78.28 13.92H88.16V27.92C86.6133 28.4267 85.0533 28.8 83.48 29.04C81.9067 29.28 80.12 29.4 78.12 29.4C75.16 29.4 72.6667 28.8133 70.64 27.64C68.6133 26.44 67.0667 24.7467 66 22.56C64.96 20.3467 64.44 17.7333 64.44 14.72C64.44 11.7333 65.0267 9.14667 66.2 6.96C67.3733 4.77333 69.0533 3.08 71.24 1.88C73.4533 0.653332 76.12 0.0399985 79.24 0.0399985C80.84 0.0399985 82.3467 0.186665 83.76 0.479998C85.2 0.773332 86.5333 1.18667 87.76 1.72L86.4 4.84C85.3867 4.38666 84.24 4 82.96 3.68C81.7067 3.36 80.4 3.2 79.04 3.2C76.7733 3.2 74.8267 3.66667 73.2 4.6C71.5733 5.53333 70.3333 6.86666 69.48 8.6C68.6267 10.3067 68.2 12.3467 68.2 14.72C68.2 16.9867 68.56 19 69.28 20.76C70.0267 22.4933 71.1867 23.8533 72.76 24.84C74.3333 25.8 76.4 26.28 78.96 26.28C79.8133 26.28 80.56 26.2533 81.2 26.2C81.8667 26.12 82.4667 26.0267 83 25.92C83.56 25.8133 84.08 25.7067 84.56 25.6V17.12H78.28V13.92ZM110.942 29H94.9816V0.439998H110.942V3.6H98.5816V12.52H110.222V15.64H98.5816V25.84H110.942V29ZM139.839 3.2C138.319 3.2 136.945 3.46667 135.719 4C134.492 4.50667 133.452 5.26667 132.599 6.28C131.745 7.26667 131.092 8.48 130.639 9.92C130.185 11.3333 129.959 12.9333 129.959 14.72C129.959 17.0667 130.319 19.1067 131.039 20.84C131.785 22.5733 132.879 23.9067 134.319 24.84C135.785 25.7733 137.612 26.24 139.799 26.24C141.052 26.24 142.239 26.1333 143.359 25.92C144.479 25.7067 145.572 25.44 146.639 25.12V28.24C145.572 28.64 144.465 28.9333 143.319 29.12C142.199 29.3067 140.852 29.4 139.279 29.4C136.372 29.4 133.945 28.8 131.999 27.6C130.052 26.4 128.585 24.6933 127.599 22.48C126.639 20.2667 126.159 17.6667 126.159 14.68C126.159 12.52 126.452 10.5467 127.039 8.76C127.652 6.97333 128.532 5.42667 129.679 4.12C130.852 2.81333 132.292 1.81333 133.999 1.12C135.705 0.399999 137.665 0.0399985 139.879 0.0399985C141.345 0.0399985 142.759 0.186665 144.119 0.479998C145.479 0.773332 146.692 1.18667 147.759 1.72L146.319 4.76C145.439 4.36 144.452 4 143.359 3.68C142.292 3.36 141.119 3.2 139.839 3.2ZM177.011 14.68C177.011 16.8933 176.731 18.9067 176.171 20.72C175.611 22.5067 174.771 24.0533 173.651 25.36C172.558 26.6667 171.184 27.6667 169.531 28.36C167.904 29.0533 166.011 29.4 163.851 29.4C161.611 29.4 159.664 29.0533 158.011 28.36C156.358 27.64 154.984 26.64 153.891 25.36C152.798 24.0533 151.984 22.4933 151.451 20.68C150.918 18.8667 150.651 16.8533 150.651 14.64C150.651 11.7067 151.131 9.14667 152.091 6.96C153.051 4.77333 154.504 3.06667 156.451 1.84C158.424 0.613332 160.904 -9.53674e-07 163.891 -9.53674e-07C166.744 -9.53674e-07 169.144 0.613332 171.091 1.84C173.038 3.04 174.504 4.74667 175.491 6.96C176.504 9.14667 177.011 11.72 177.011 14.68ZM154.451 14.68C154.451 17.08 154.784 19.1467 155.451 20.88C156.118 22.6133 157.144 23.9467 158.531 24.88C159.944 25.8133 161.718 26.28 163.851 26.28C166.011 26.28 167.771 25.8133 169.131 24.88C170.518 23.9467 171.544 22.6133 172.211 20.88C172.878 19.1467 173.211 17.08 173.211 14.68C173.211 11.08 172.464 8.26667 170.971 6.24C169.478 4.18667 167.118 3.16 163.891 3.16C161.731 3.16 159.944 3.62667 158.531 4.56C157.144 5.46667 156.118 6.78667 155.451 8.52C154.784 10.2267 154.451 12.28 154.451 14.68ZM199.541 21.36C199.541 23.0667 199.128 24.52 198.301 25.72C197.474 26.8933 196.288 27.8 194.741 28.44C193.221 29.08 191.421 29.4 189.341 29.4C188.274 29.4 187.248 29.3467 186.261 29.24C185.301 29.1333 184.421 28.9867 183.621 28.8C182.821 28.5867 182.114 28.3333 181.501 28.04V24.6C182.461 25.0267 183.648 25.4133 185.061 25.76C186.501 26.1067 187.981 26.28 189.501 26.28C190.914 26.28 192.101 26.0933 193.061 25.72C194.021 25.3467 194.741 24.8133 195.221 24.12C195.701 23.4267 195.941 22.6133 195.941 21.68C195.941 20.7467 195.741 19.96 195.341 19.32C194.941 18.68 194.248 18.0933 193.261 17.56C192.301 17 190.954 16.4133 189.221 15.8C187.994 15.3467 186.914 14.8667 185.981 14.36C185.074 13.8267 184.314 13.2267 183.701 12.56C183.088 11.8933 182.621 11.1333 182.301 10.28C182.008 9.42667 181.861 8.44 181.861 7.32C181.861 5.8 182.248 4.50666 183.021 3.44C183.794 2.34667 184.861 1.50667 186.221 0.919999C187.608 0.333332 189.194 0.0399985 190.981 0.0399985C192.554 0.0399985 193.994 0.186665 195.301 0.479998C196.608 0.773332 197.794 1.16 198.861 1.64L197.741 4.72C196.754 4.29333 195.674 3.93333 194.501 3.64C193.354 3.34667 192.154 3.2 190.901 3.2C189.701 3.2 188.701 3.37333 187.901 3.72C187.101 4.06667 186.501 4.56 186.101 5.2C185.701 5.81333 185.501 6.53333 185.501 7.36C185.501 8.32 185.701 9.12 186.101 9.76C186.501 10.4 187.154 10.9733 188.061 11.48C188.968 11.9867 190.194 12.5333 191.741 13.12C193.421 13.7333 194.834 14.4 195.981 15.12C197.154 15.8133 198.034 16.6533 198.621 17.64C199.234 18.6267 199.541 19.8667 199.541 21.36ZM217.894 29L208.494 3.96H208.334C208.387 4.49333 208.427 5.17333 208.454 6C208.507 6.82667 208.547 7.73333 208.574 8.72C208.601 9.68 208.614 10.6667 208.614 11.68V29H205.294V0.439998H210.614L219.414 23.84H219.574L228.534 0.439998H233.814V29H230.254V11.44C230.254 10.5067 230.267 9.58667 230.294 8.68C230.321 7.74667 230.361 6.88 230.414 6.08C230.467 5.25333 230.507 4.56 230.534 4H230.374L220.854 29H217.894ZM257.543 29H241.583V0.439998H257.543V3.6H245.183V12.52H256.823V15.64H245.183V25.84H257.543V29ZM272.85 29H269.25V3.6H260.33V0.439998H281.73V3.6H272.85V29ZM294.076 29H283.756V26.92L287.116 26.16V3.32L283.756 2.52V0.439998H294.076V2.52L290.716 3.32V26.16L294.076 26.92V29ZM311.831 3.2C310.311 3.2 308.938 3.46667 307.711 4C306.484 4.50667 305.444 5.26667 304.591 6.28C303.738 7.26667 303.084 8.48 302.631 9.92C302.178 11.3333 301.951 12.9333 301.951 14.72C301.951 17.0667 302.311 19.1067 303.031 20.84C303.778 22.5733 304.871 23.9067 306.311 24.84C307.778 25.7733 309.604 26.24 311.791 26.24C313.044 26.24 314.231 26.1333 315.351 25.92C316.471 25.7067 317.564 25.44 318.631 25.12V28.24C317.564 28.64 316.458 28.9333 315.311 29.12C314.191 29.3067 312.844 29.4 311.271 29.4C308.364 29.4 305.938 28.8 303.991 27.6C302.044 26.4 300.578 24.6933 299.591 22.48C298.631 20.2667 298.151 17.6667 298.151 14.68C298.151 12.52 298.444 10.5467 299.031 8.76C299.644 6.97333 300.524 5.42667 301.671 4.12C302.844 2.81333 304.284 1.81333 305.991 1.12C307.698 0.399999 309.658 0.0399985 311.871 0.0399985C313.338 0.0399985 314.751 0.186665 316.111 0.479998C317.471 0.773332 318.684 1.18667 319.751 1.72L318.311 4.76C317.431 4.36 316.444 4 315.351 3.68C314.284 3.36 313.111 3.2 311.831 3.2ZM341.064 21.36C341.064 23.0667 340.651 24.52 339.824 25.72C338.998 26.8933 337.811 27.8 336.264 28.44C334.744 29.08 332.944 29.4 330.864 29.4C329.798 29.4 328.771 29.3467 327.784 29.24C326.824 29.1333 325.944 28.9867 325.144 28.8C324.344 28.5867 323.638 28.3333 323.024 28.04V24.6C323.984 25.0267 325.171 25.4133 326.584 25.76C328.024 26.1067 329.504 26.28 331.024 26.28C332.438 26.28 333.624 26.0933 334.584 25.72C335.544 25.3467 336.264 24.8133 336.744 24.12C337.224 23.4267 337.464 22.6133 337.464 21.68C337.464 20.7467 337.264 19.96 336.864 19.32C336.464 18.68 335.771 18.0933 334.784 17.56C333.824 17 332.478 16.4133 330.744 15.8C329.518 15.3467 328.438 14.8667 327.504 14.36C326.598 13.8267 325.838 13.2267 325.224 12.56C324.611 11.8933 324.144 11.1333 323.824 10.28C323.531 9.42667 323.384 8.44 323.384 7.32C323.384 5.8 323.771 4.50666 324.544 3.44C325.318 2.34667 326.384 1.50667 327.744 0.919999C329.131 0.333332 330.718 0.0399985 332.504 0.0399985C334.078 0.0399985 335.518 0.186665 336.824 0.479998C338.131 0.773332 339.318 1.16 340.384 1.64L339.264 4.72C338.278 4.29333 337.198 3.93333 336.024 3.64C334.878 3.34667 333.678 3.2 332.424 3.2C331.224 3.2 330.224 3.37333 329.424 3.72C328.624 4.06667 328.024 4.56 327.624 5.2C327.224 5.81333 327.024 6.53333 327.024 7.36C327.024 8.32 327.224 9.12 327.624 9.76C328.024 10.4 328.678 10.9733 329.584 11.48C330.491 11.9867 331.718 12.5333 333.264 13.12C334.944 13.7333 336.358 14.4 337.504 15.12C338.678 15.8133 339.558 16.6533 340.144 17.64C340.758 18.6267 341.064 19.8667 341.064 21.36Z" fill="#AC8F78"/>
</svg>
